<svg width="42" height="42" viewBox="0 0 42 42" fill="none" xmlns="http://www.w3.org/2000/svg">
<path d="M24.1108 12.2403C24.472 11.6551 24.4972 11.6593 25.1762 11.8175C26.3228 12.0849 27.419 12.4685 28.3458 13.2343C28.3878 13.2623 28.4704 13.3211 28.4704 13.3211L29.0108 13.7131C29.0108 13.7131 29.1606 13.8279 29.2292 13.8937C29.2684 13.9273 29.3356 14.0029 29.3356 14.0029L29.2922 13.9357L29.2194 13.8307C29.204 13.8055 29.1606 13.7537 29.1186 13.7047L29.0052 13.5857L28.8806 13.4555L28.6328 13.2105C28.6328 13.2105 28.1456 12.6995 27.8642 12.4881C27.7186 12.3789 27.6766 12.2935 27.7676 12.1157C28.5264 10.6233 29.232 9.10286 30.0538 7.64406C30.5032 6.84746 31.0646 6.13626 31.7464 5.52446C32.1804 5.13526 32.6592 4.85806 33.278 4.91686C33.509 4.93926 33.7204 5.01626 33.929 5.09886C35.8764 5.87026 37.1616 7.29266 37.877 9.22746C38.1416 9.94566 38.1402 10.7157 37.7944 11.4367C37.4878 12.0751 37.0006 12.4545 36.2642 12.4881C35.6454 12.5161 35.0896 12.3831 34.6206 11.9603C34.4806 11.8343 34.3364 11.7111 34.1922 11.5893C34.0858 11.4997 33.9752 11.4255 33.8282 11.4031C33.5132 11.3541 33.3844 11.4003 33.2458 11.6817C33.0176 12.1451 32.7992 12.6127 32.5836 13.0817C32.2994 13.6991 32.0376 14.3263 31.7898 14.9591C31.7002 15.1859 31.7086 15.3287 31.9018 15.5093C33.0918 16.6209 34.048 17.9159 34.7858 19.3649C35.4354 20.6389 35.8694 21.9885 36.1144 23.3997C36.3258 24.6135 36.3496 25.8385 36.2404 27.0537C35.9744 30.0259 34.846 32.6551 32.9056 34.9203C31.5714 36.4785 29.9978 37.744 28.1316 38.6246C26.7218 39.2896 25.249 39.7349 23.695 39.9085C22.764 40.0121 21.8316 40.0079 20.902 39.9533C19.2514 39.8553 17.6806 39.4156 16.1798 38.7339C14.5572 37.9961 13.1334 36.9685 11.8832 35.6973C9.90502 33.6855 8.62682 31.2943 8.04862 28.5391C7.78122 27.2651 7.70422 25.9673 7.81202 24.6681C8.06402 21.6175 9.19102 18.9225 11.1566 16.5747C11.158 16.5733 11.1622 16.5691 11.1622 16.5691L11.6886 16.0413C11.6886 16.0413 9.63622 11.2435 8.76402 9.17986C8.60302 8.79766 8.25582 8.69546 7.90862 8.92786C7.74202 9.03986 7.59222 9.17706 7.44662 9.31566C6.85722 9.87846 6.14882 10.0017 5.37882 9.87286C4.85522 9.78466 4.49962 9.44166 4.25182 8.99926C3.85562 8.28946 3.84582 7.52926 4.06982 6.76766C4.34142 5.84226 4.88602 5.06386 5.51602 4.35546C6.19642 3.58966 6.94962 2.89946 7.85962 2.40246C7.94782 2.35346 8.04022 2.31286 8.12422 2.25686C8.63102 1.91386 9.10422 2.03986 9.55782 2.36326C10.0534 2.71746 10.4664 3.15986 10.8472 3.63306C11.6004 4.56966 12.2248 5.59026 12.7778 6.65286C13.608 8.24746 14.4088 9.86166 15.2264 11.4661C15.4322 11.8693 15.981 12.8535 15.981 12.8535L16.1714 12.7569C16.1714 12.7569 17.661 12.1507 18.4394 11.9435C18.5724 11.9085 18.69 11.8315 18.7782 11.7265C19.8366 10.4637 21.0182 9.33526 22.4028 8.43226C22.5694 8.32446 22.9894 8.04866 22.9894 8.04866C22.9894 8.04866 22.7598 8.51766 22.6912 9.40806C22.638 10.1011 22.7304 10.5561 22.7444 10.5463C22.7584 10.5365 22.8438 10.4791 22.9026 10.4441C23.3814 10.1683 24.024 10.0199 24.5434 9.94426C24.6176 9.92746 25.0222 9.84626 25.0222 9.84626C25.0222 9.84626 24.7632 10.1165 24.7198 10.1781C24.4888 10.5099 24.3138 10.8697 24.1878 11.2533C24.066 11.6243 23.9708 12.0009 24.0072 12.3971M19.516 34.2105C20.545 33.9347 21.4368 33.3971 22.2684 32.7517C22.4574 32.6047 22.6212 32.4227 22.7318 32.2071C23.0608 31.5701 22.8942 31.2509 22.463 30.9359C20.6892 29.6395 19.012 28.2269 17.4594 26.6687C17.0142 26.2221 16.5494 25.7951 16.0552 25.4017C15.47 24.9369 14.8428 24.5407 14.1414 24.2747C13.5744 24.0591 13.125 24.2173 12.8198 24.7367C12.6252 25.0671 12.5062 25.4269 12.4838 25.8091C12.4264 26.7919 12.411 27.7775 12.5706 28.7533C12.8212 30.2751 13.433 31.6457 14.4018 32.8455C14.9716 33.5525 15.7038 34.0257 16.5914 34.2497C17.0352 34.3617 17.4888 34.3785 17.7912 34.3841C18.4744 34.3897 19.0008 34.3477 19.516 34.2105ZM33.8156 25.8805C33.7456 25.5599 33.5944 25.2645 33.3746 25.0125C33.0428 24.6359 32.6606 24.5673 32.2266 24.8235C31.8332 25.0545 31.4832 25.3429 31.1612 25.6649C30.6684 26.1563 30.2512 26.7093 29.8522 27.2763C28.9576 28.5461 27.965 29.7347 26.9136 30.8743C26.7596 31.0409 26.6014 31.2033 26.446 31.3685C26.2276 31.5995 26.2094 31.8543 26.3438 32.1343C26.481 32.4213 26.7092 32.6187 26.9794 32.7615C28.119 33.3635 29.3062 33.6869 30.6152 33.4601C31.948 33.2291 32.9112 32.5445 33.467 31.3069C33.8996 30.3423 34.146 29.3343 34.1502 28.2633C34.1418 27.4597 33.9878 26.6687 33.8156 25.8805Z" fill="#8C62FF"/>
</svg>