<?xml version="1.0" encoding="utf-8"?>
<!-- Generator: Adobe Illustrator 23.0.0, SVG Export Plug-In . SVG Version: 6.00 Build 0)  -->
<svg version="1.1" id="Camada_1" xmlns="http://www.w3.org/2000/svg" xmlns:xlink="http://www.w3.org/1999/xlink" x="0px" y="0px"
	 viewBox="0 0 3000 3000" style="enable-background:new 0 0 3000 3000;" xml:space="preserve">
<g>
	<g>
		<path d="M2832.9,513.1c-60.5-163.7-169.3-284-334-349.3c-17.6-7-35.5-13.5-55.1-15.4c-52.4-5-92.9,18.5-129.6,51.4
			c-57.7,51.8-105.2,111.9-143.2,179.3c-30.2,53.6-109,208.1-120.5,230.6c-7.7,15-4.1,22.3,8.2,31.5c23.8,17.9,65,61.1,65,61.1
			l21,20.7l10.5,11l9.6,10.1c3.6,4.2,7.2,8.5,8.5,10.7l6.2,8.9l3.7,5.7c0,0-5.7-6.4-9-9.2c-5.8-5.6-18.5-15.3-18.5-15.3l-45.7-33.2
			c0,0-7-5-10.5-7.3c-78.4-64.8-171.2-97.3-268.2-119.9c-57.5-13.4-59.6-13.7-90.1,35.8l-8.8,13.3c-3.1-33.5,5-65.4,15.3-96.8
			c10.7-32.5,25.5-62.9,45-91c3.7-5.2,25.6-28.1,25.6-28.1s-34.2,6.9-40.5,8.3c-44,6.4-98.3,19-138.8,42.3c-5,3-12.2,7.8-13.4,8.7
			c-1.2,0.8-9-37.7-4.5-96.3c5.8-75.3,25.2-115,25.2-115s-35.5,23.3-49.6,32.5c-117.1,76.4-217.1,171.9-306.7,278.7
			c-7.5,8.9-17.4,15.4-28.7,18.4c-65.9,17.5-191.9,68.8-191.9,68.8l-16.1,8.2c0,0-42.7-85.5-63.8-117.4
			c-7.8-11.8-188.7-309.9-252.4-389.1c-32.2-40-67.2-77.5-109.1-107.4c-38.4-27.4-78.4-38-121.3-9c-7.1,4.7-14.9,8.2-22.4,12.3
			c-77,42.1-140.7,100.5-198.3,165.2c-53.3,59.9-99.4,125.8-122.4,204.1c-19,64.4-18.1,128.7,15.4,188.8c21,37.4,51,66.4,95.4,73.9
			c65.1,10.9,125.1,0.5,174.9-47.1c12.3-11.7,25-23.3,39.1-32.8c29.4-19.7,58.8-11,72.4,21.3c19,45,129.3,306.9,129.3,306.9
			l-44.5,44.6c0,0-0.4,0.4-0.5,0.5c-166.3,198.6-261.7,426.6-283,684.7c-9.1,109.9-2.6,219.7,20,327.5
			c48.9,233.1,157.1,435.4,324.4,605.6c105.8,107.5,226.2,194.5,363.5,256.9c127,57.7,259.9,94.9,399.5,103.2
			c78.7,4.6,157.5,5,236.3-3.8c131.5-14.7,256.1-52.4,375.4-108.6c157.9-74.5,291-181.6,403.9-313.4
			c164.2-191.7,259.6-414.1,282.1-665.6c9.2-102.8,7.2-206.5-10.7-309.2c-20.7-119.4-57.4-233.6-112.4-341.4
			c-62.4-122.6-143.3-232.2-244-326.2c-16.3-15.3-17.1-27.4-9.5-46.6c10.1-25.8,42.1-113.1,50.2-129.5
			c11.7-23.8,22.6-27.7,49.3-23.6c12.4,1.9,21.8,8.2,30.8,15.8c12.2,10.3,24.4,20.7,36.2,31.4c39.7,35.8,86.7,47,139.1,44.6
			c62.3-2.8,103.5-34.9,129.5-88.9C2855.1,639,2855.2,573.8,2832.9,513.1z M1624.5,2309.5c-9.4,18.2-23.2,33.6-39.2,46.1
			c-70.4,54.6-145.8,100.1-232.9,123.4c-43.6,11.6-88.1,15.2-145.9,14.7c-25.6-0.5-64-1.9-101.5-11.4c-75.1-19-137.1-59-185.3-118.8
			c-82-101.5-133.7-217.5-154.9-346.2c-13.5-82.6-12.2-166-7.3-249.1c1.9-32.3,12-62.8,28.4-90.7c25.8-43.9,63.8-57.3,111.8-39.1
			c59.3,22.5,112.4,56,161.9,95.4c41.8,33.3,81.1,69.4,118.8,107.2c131.4,131.8,273.3,251.3,423.3,361
			C1638.2,2228.6,1652.3,2255.6,1624.5,2309.5z M2427.8,1684.8c36.7-21.7,69-15.9,97.1,16c18.6,21.3,31.4,46.3,37.3,73.4
			c14.6,66.7,27.6,133.6,28.3,201.6c-0.4,90.6-21.2,175.9-57.8,257.5c-47,104.7-128.5,162.6-241.3,182.2
			c-110.7,19.2-211.2-8.2-307.6-59.1c-22.9-12.1-42.2-28.8-53.8-53.1c-11.4-23.7-9.8-45.3,8.6-64.8c13.2-14,26.5-27.7,39.6-41.8
			c88.9-96.4,172.9-197,248.6-304.4c33.8-48,69-94.8,110.7-136.3C2364.9,1728.8,2394.5,1704.4,2427.8,1684.8z"/>
	</g>
</g>
</svg>
